<svg width="21" height="25" viewBox="0 0 21 25" fill="none" xmlns="http://www.w3.org/2000/svg">
<path d="M9.70312 1.25C9.70312 1.0625 9.78125 0.890625 9.9375 0.734375C10.0938 0.578125 10.2656 0.5 10.4531 0.5C10.6719 0.5 10.8594 0.578125 11.0156 0.734375C11.1719 0.859375 11.25 1.03125 11.25 1.25V2.04688C13.1562 2.23438 14.75 3.04687 16.0312 4.48438C17.3438 5.89062 18 7.5625 18 9.5V10.8594C18 12.9844 18.75 14.8125 20.25 16.3438L20.3906 16.4375C20.7969 16.8438 21 17.3438 21 17.9375C21 18.5 20.7969 18.9844 20.3906 19.3906C19.9844 19.7969 19.5 20 18.9375 20H2.0625C1.5 20 1.01562 19.7969 0.609375 19.3906C0.203125 18.9844 0 18.5 0 17.9375C0 17.3438 0.203125 16.8438 0.609375 16.4375L0.75 16.3438C2.25 14.8125 3 12.9844 3 10.8594V9.5C3 7.5625 3.64062 5.89062 4.92188 4.48438C6.23438 3.04687 7.84375 2.23438 9.75 2.04688L9.70312 1.25ZM10.4531 3.5C8.82812 3.5 7.42188 4.09375 6.23438 5.28125C5.04688 6.4375 4.45312 7.84375 4.45312 9.5V10.8594C4.45312 13.4531 3.5625 15.625 1.78125 17.375L1.6875 17.5156C1.53125 17.6406 1.45312 17.7812 1.45312 17.9375C1.45312 18.0938 1.51562 18.2344 1.64062 18.3594C1.76562 18.4531 1.90625 18.5 2.0625 18.5H18.9375C19.0938 18.5 19.2188 18.4531 19.3125 18.3594C19.4375 18.2344 19.5 18.0938 19.5 17.9375C19.5 17.7812 19.4375 17.6406 19.3125 17.5156L19.2188 17.375C17.4062 15.5938 16.5 13.4219 16.5 10.8594V9.5C16.5 7.84375 15.9062 6.4375 14.7188 5.28125C13.5625 4.09375 12.1406 3.5 10.4531 3.5ZM10.4531 23C11.2031 23 11.6875 22.6719 11.9062 22.0156C11.9688 21.7969 12.0938 21.6406 12.2812 21.5469C12.5 21.4531 12.7031 21.4531 12.8906 21.5469C13.0781 21.6094 13.2188 21.7344 13.3125 21.9219C13.4062 22.1094 13.4062 22.2969 13.3125 22.4844C13.125 23.0781 12.7656 23.5625 12.2344 23.9375C11.7031 24.3125 11.1094 24.5 10.4531 24.5C9.82812 24.5 9.25 24.3125 8.71875 23.9375C8.21875 23.5625 7.875 23.0781 7.6875 22.4844C7.59375 22.2969 7.59375 22.1094 7.6875 21.9219C7.78125 21.7344 7.92188 21.6094 8.10938 21.5469C8.29688 21.4531 8.48438 21.4531 8.67188 21.5469C8.89062 21.6406 9.03125 21.7969 9.09375 22.0156C9.3125 22.6719 9.76562 23 10.4531 23Z" fill="#253746"/>
</svg>
