<svg width="24" height="23" viewBox="0 0 24 23" fill="none" xmlns="http://www.w3.org/2000/svg">
<path fill-rule="evenodd" clip-rule="evenodd" d="M14.9991 10.1568L12.8512 12.3135L11.6749 11.152C10.5922 10.0827 10 9.87915 10 10.5761C10 10.9812 12.6322 13.5211 12.9441 13.4173C13.0897 13.3687 14.2713 12.2628 15.57 10.9598C17.3803 9.14335 17.8739 8.52158 17.6861 8.29532C17.5514 8.13289 17.3748 8 17.294 8C17.2131 8 16.1804 8.97047 14.9991 10.1568Z" fill="#00984B"/>
<path fill-rule="evenodd" clip-rule="evenodd" d="M9.2545 0.185205C7.95463 0.436228 7.43714 1.05072 7.43714 2.34264C7.43714 3.21338 7.35468 3.37672 6.75858 3.68476C6.15022 3.99939 5.99484 4.00007 5.25427 3.69066C4.07048 3.19589 3.51278 3.26063 2.84581 3.97031C2.06662 4.79903 1.30537 6.0889 1.30446 6.58208C1.30401 6.80039 1.64522 7.36264 2.06275 7.83152C2.7245 8.57459 2.79765 8.77496 2.63227 9.39081C2.48166 9.95283 2.23222 10.1782 1.41623 10.4896C0.171337 10.9651 -0.140794 11.4792 0.0529815 12.7334C0.424632 15.1384 0.814228 15.6128 2.41918 15.6128C3.15771 15.6128 3.41351 15.7286 3.72473 16.2036C4.0589 16.7136 4.07162 16.8922 3.81764 17.5099C3.29924 18.7698 3.26426 19.4599 3.69452 19.9354C4.26835 20.5694 6.15954 21.7464 6.60456 21.7464C6.81174 21.7464 7.37217 21.3933 7.84991 20.9617C8.51393 20.362 8.84809 20.2093 9.2704 20.3131C10.065 20.5087 10.342 20.7816 10.5067 21.5321C10.7334 22.5635 11.618 23.1328 12.7472 22.9735C15.1239 22.6387 15.6153 22.2373 15.6153 20.6307C15.6153 19.8922 15.7311 19.6364 16.2061 19.3252C16.7177 18.9901 16.8931 18.9778 17.5124 19.2348C19.1196 19.9015 19.5717 19.8279 20.4369 18.7575C21.9619 16.8711 22.0215 16.3125 20.8322 15.0448C19.8549 14.003 20.1055 13.232 21.6423 12.5526C22.3443 12.242 22.9001 11.8329 22.9856 11.5637C23.0658 11.3113 23.014 10.4303 22.8704 9.6064C22.5664 7.86151 22.1405 7.43465 20.7023 7.43465C19.9338 7.43465 19.6839 7.32357 19.3683 6.84197C19.0044 6.28654 19.0037 6.18726 19.3588 5.25768C19.8981 3.84559 19.7479 3.38421 18.3897 2.27858C16.9372 1.09661 16.3481 1.05527 15.2184 2.05663C14.4608 2.72815 14.2868 2.78857 13.6561 2.59979C13.1012 2.43396 12.8892 2.19657 12.6839 1.51188C12.242 0.0366357 11.5035 -0.249144 9.2545 0.185205ZM11.7559 2.10525C12.0764 3.24996 12.3247 3.44532 13.7627 3.68362C14.6709 3.83401 14.8104 3.78857 15.5069 3.11343C16.3888 2.25859 16.8958 2.29198 18.0803 3.28358L18.8415 3.92079L18.3125 5.00961L17.7834 6.09867L18.3872 7.16409C18.9567 8.16955 19.0573 8.23815 20.1662 8.37809C20.8127 8.45987 21.4267 8.61321 21.5312 8.71884C21.6355 8.82471 21.7906 9.44147 21.8758 10.0894L22.0308 11.2677L21.1514 11.6205C19.7461 12.1843 19.6512 12.2809 19.3393 13.4653C19.1762 14.0841 19.0383 14.6157 19.0328 14.6466C19.0274 14.6775 19.3958 15.1157 19.8518 15.6205C20.762 16.628 20.7475 16.7813 19.6085 18.1891L19.0862 18.8347L18.1548 18.3595C16.9567 17.7484 16.7014 17.7607 15.6105 18.4826C14.7965 19.0212 14.7066 19.175 14.7066 20.0294C14.7066 21.4031 14.3647 21.7418 12.9135 21.8059L11.6884 21.8599L11.349 20.8377C11.1625 20.2754 10.9878 19.7879 10.961 19.7545C10.9342 19.7211 10.3604 19.5489 9.6859 19.3722L8.45941 19.051L7.65477 19.8306C7.21224 20.2595 6.71065 20.6105 6.54027 20.6105C6.22587 20.6105 4.72473 19.5717 4.44418 19.1603C4.3599 19.0365 4.48779 18.5496 4.72814 18.0782C5.31174 16.9344 5.28493 16.6634 4.47303 15.4833C3.81333 14.5244 3.72814 14.4769 2.66907 14.4769C2.05776 14.4769 1.50642 14.3945 1.44417 14.2936C1.38193 14.1925 1.26039 13.5796 1.17452 12.931L1.018 11.752L1.89919 11.4051C3.31855 10.8463 3.40238 10.7622 3.71314 9.58209C3.87625 8.96328 4.01414 8.4317 4.0196 8.40081C4.02505 8.36991 3.66362 7.93965 3.21632 7.44442C2.30673 6.4376 2.31718 6.16273 3.31128 4.96668L3.94645 4.20271L4.88761 4.68272C6.09161 5.29698 6.20156 5.28835 7.49393 4.47667C8.56572 3.8038 8.57299 3.79062 8.57299 2.56526C8.57299 1.20406 8.58889 1.19293 10.6448 1.10797C11.4353 1.07526 11.4783 1.11388 11.7559 2.10525ZM9.36809 6.50326C6.58389 7.79494 5.49802 11.0651 6.93578 13.8263C8.71929 17.2509 13.7159 17.5026 15.8533 14.2754C16.578 13.1814 16.6396 12.5964 16.0421 12.4812C15.8181 12.4381 15.5735 12.6664 15.4035 13.0766C15.0394 13.9556 14.1096 14.8245 13.0669 15.26C10.0844 16.5058 6.78335 13.8122 7.32969 10.5785C7.71338 8.30835 10.2095 6.65205 12.4119 7.20657C12.9692 7.34697 13.7211 7.67273 14.0832 7.93034C14.5796 8.28381 14.8059 8.33493 15.003 8.13774C15.3874 7.75337 14.9608 7.20498 13.799 6.59072C12.565 5.93806 10.6668 5.90057 9.36809 6.50326Z" fill="#3A5D8D"/>
</svg>
