<svg width="24" height="24" viewBox="0 0 24 24" fill="none" xmlns="http://www.w3.org/2000/svg">
<path d="M19.4899 15.147H4.74677C3.60978 15.147 2.68555 14.2581 2.68555 13.1645V7.73519C2.68555 7.46125 2.91546 7.24011 3.20028 7.24011C3.4851 7.24011 3.71502 7.46125 3.71502 7.73519V13.1645C3.71502 13.7113 4.17828 14.1569 4.74677 14.1569H19.4899C20.0584 14.1569 20.5217 13.7124 20.5217 13.1645V3.98251C20.5217 3.43572 20.0595 2.99015 19.4899 2.99015H4.74677C4.17828 2.99015 3.71502 3.43572 3.71502 3.98251V5.03757C3.71502 5.31151 3.4851 5.53265 3.20028 5.53265C2.91546 5.53265 2.68555 5.31151 2.68555 5.03757V3.98251C2.68555 2.88894 3.60978 2 4.74677 2H19.4899C20.6258 2 21.5511 2.88894 21.5511 3.98251V13.1645C21.5511 14.257 20.6269 15.147 19.4899 15.147Z" fill="#3A5D8D"/>
<path d="M21.9373 21.9999H2.06401C1.26445 21.9999 0.552976 21.5698 0.206389 20.8767C-0.140199 20.1835 -0.0452594 19.3804 0.453461 18.7797L2.31794 16.5354C2.71143 16.0623 3.29823 15.7906 3.92849 15.7906H20.193C20.8392 15.7906 21.4569 16.0876 21.8435 16.586L23.5879 18.8303C24.058 19.4354 24.1312 20.2298 23.7801 20.9053C23.4278 21.5808 22.722 21.9999 21.9373 21.9999ZM3.92849 16.7807C3.61279 16.7807 3.31996 16.9171 3.12322 17.1537L1.25873 19.398C1.0048 19.7028 0.959044 20.0955 1.1352 20.4476C1.31135 20.7996 1.65908 21.0098 2.06515 21.0098H21.9385C22.3377 21.0098 22.682 20.8051 22.8604 20.4619C23.0389 20.1186 23.0034 19.7303 22.7643 19.4233L21.02 17.179C20.8266 16.9292 20.5178 16.7807 20.1941 16.7807H3.92849Z" fill="#3A5D8D"/>
<path d="M14.3178 21.8899H10.0546C9.83388 21.8899 9.6543 21.7172 9.6543 21.5048C9.6543 21.2925 9.83388 21.1198 10.0546 21.1198H14.3178C14.5386 21.1198 14.7181 21.2925 14.7181 21.5048C14.7181 21.7172 14.5397 21.8899 14.3178 21.8899Z" fill="#00984B"/>
<path d="M19.3607 5.94736C19.3607 5.92976 19.3584 5.91215 19.355 5.89455C19.3539 5.88795 19.3527 5.88135 19.3516 5.87475C19.347 5.85385 19.3401 5.83184 19.331 5.81204C19.331 5.81204 19.331 5.81204 19.331 5.81094C19.3298 5.80764 19.3276 5.80324 19.3253 5.79994C19.3173 5.78233 19.3081 5.76693 19.2978 5.75043C19.2932 5.74493 19.2898 5.73833 19.2852 5.73283C19.2749 5.71962 19.2646 5.70752 19.2532 5.69542C19.2486 5.68992 19.2441 5.68552 19.2383 5.68112C19.2235 5.66682 19.2063 5.65361 19.1892 5.64261C19.188 5.64151 19.1857 5.64041 19.1846 5.63931C19.1651 5.62721 19.1457 5.61731 19.124 5.60741C19.1171 5.60411 19.1102 5.60191 19.1034 5.59971C19.0874 5.5942 19.0713 5.5887 19.0542 5.5854C19.0473 5.5832 19.0405 5.5821 19.0324 5.581C19.0084 5.5766 18.9844 5.5744 18.9604 5.5744H16.7196C16.4988 5.5744 16.3192 5.74713 16.3192 5.95946C16.3192 6.17179 16.4988 6.34452 16.7196 6.34452H17.9938L13.3578 10.8035L8.79381 6.41383C8.64396 6.26971 8.37744 6.26971 8.2276 6.41383L4.97105 9.54602C4.81434 9.69674 4.81434 9.93988 4.97105 10.0906C5.12775 10.2413 5.38055 10.2413 5.53725 10.0906L8.51128 7.23016L13.0753 11.6198C13.1507 11.6924 13.2525 11.7332 13.3578 11.7332C13.463 11.7332 13.566 11.6924 13.6403 11.6209L18.56 6.88911V8.21701C18.56 8.42934 18.7396 8.60207 18.9604 8.60207C19.1811 8.60207 19.3607 8.42934 19.3607 8.21701V5.95836C19.3619 5.95506 19.3607 5.95066 19.3607 5.94736Z" fill="#00984B"/>
</svg>
