<svg width="24" height="24" viewBox="0 0 24 24" fill="none" xmlns="http://www.w3.org/2000/svg">
<path d="M19.5722 11.5873C19.1951 11.5873 18.8739 11.3223 18.8058 10.9519L18.7401 10.5973C18.6951 10.5816 18.65 10.5646 18.605 10.5465C18.5758 10.5344 18.5454 10.5223 18.5162 10.509L18.2242 10.7232C18.0941 10.8188 17.9383 10.872 17.7741 10.8745C17.5661 10.8745 17.369 10.7994 17.2193 10.6554L16.7351 10.1882C16.4602 9.92318 16.4188 9.50442 16.6354 9.19095L16.8422 8.89201C16.8167 8.83876 16.7923 8.78551 16.7704 8.73225C16.7619 8.71289 16.7546 8.69352 16.7461 8.67295L16.3872 8.6197C16.0088 8.56281 15.7302 8.24572 15.7242 7.86448L15.7132 7.19277C15.7023 6.81637 15.9699 6.48838 16.3495 6.41939L16.7059 6.35283C16.7218 6.30926 16.7376 6.26569 16.7546 6.22333C16.7668 6.19186 16.7802 6.1616 16.7935 6.13135L16.5782 5.84088C16.3495 5.53225 16.3799 5.11107 16.6476 4.83876L17.1159 4.35828C17.2619 4.20941 17.4554 4.12469 17.6634 4.12227C17.8228 4.12106 17.9846 4.16705 18.1184 4.26024L18.4165 4.46478C18.4566 4.44542 18.498 4.42726 18.5381 4.40911C18.5771 4.39216 18.6172 4.37643 18.6561 4.3607L18.7097 4.01092C18.7668 3.63452 19.0856 3.35737 19.4688 3.35132L20.1428 3.34042C20.1477 3.34042 20.1513 3.34042 20.1562 3.34042C20.5321 3.34042 20.8533 3.60548 20.9226 3.97582L20.9908 4.3377C21.0297 4.35101 21.0674 4.36554 21.1039 4.38127C21.1404 4.39579 21.1769 4.41153 21.2122 4.42726L21.4993 4.21425C21.6307 4.11743 21.7864 4.06418 21.9506 4.06175C22.1587 4.06054 22.3582 4.13679 22.5078 4.28324L22.9908 4.74678C23.2658 5.01183 23.3083 5.4318 23.0906 5.74405L22.8801 6.04784C22.8971 6.08415 22.9142 6.12045 22.93 6.15797C22.9458 6.19428 22.9604 6.2318 22.975 6.26932L23.3266 6.32257C23.7037 6.37945 23.9836 6.69655 23.9896 7.07779L24.0006 7.74829C24.0067 8.12832 23.7378 8.4551 23.3619 8.52408L22.9981 8.59186C22.9884 8.61728 22.9787 8.6439 22.9689 8.66932C22.9507 8.71773 22.93 8.76614 22.9081 8.81334L23.1198 9.09655C23.3485 9.40638 23.3193 9.82756 23.0516 10.0999L22.5833 10.5804C22.4385 10.7292 22.2438 10.8139 22.0358 10.8164C21.8776 10.8152 21.7146 10.7716 21.5808 10.6784L21.2767 10.4702C21.2438 10.486 21.211 10.5005 21.1781 10.5138C21.144 10.5283 21.1088 10.5428 21.0735 10.5562L21.02 10.9132C20.9628 11.2896 20.644 11.5667 20.2608 11.5728L19.5856 11.5873C19.5807 11.5873 19.5771 11.5873 19.5722 11.5873ZM19.6428 10.797C19.6428 10.7982 19.6428 10.7982 19.6428 10.797V10.797ZM18.47 9.59277C18.5357 9.59277 18.6014 9.60729 18.6622 9.63876L18.7279 9.67265C18.7912 9.70411 18.8557 9.73437 18.9226 9.761C18.9992 9.79125 19.0783 9.81909 19.1586 9.84209L19.2291 9.86266C19.3836 9.90744 19.4992 10.0345 19.5284 10.1919L19.6306 10.7389L19.9068 10.7341L20.1854 10.7292L20.2681 10.1798C20.2924 10.0212 20.4031 9.8905 20.5564 9.84088L20.627 9.81788C20.7 9.79367 20.7718 9.76705 20.8411 9.73679C20.9092 9.70774 20.9762 9.67507 21.0382 9.64118L21.1039 9.60608C21.245 9.52983 21.4166 9.5383 21.5492 9.62908L22.0139 9.94738L22.3983 9.55283L22.0686 9.11228C21.9713 8.98278 21.9567 8.8085 22.0322 8.66448L22.0662 8.59791C22.1064 8.52045 22.1416 8.44178 22.1733 8.36312C22.1976 8.30018 22.2195 8.23725 22.239 8.1731L22.2597 8.1029C22.3047 7.95041 22.4324 7.83664 22.5893 7.80759L23.1465 7.70351L23.138 7.15283L22.5906 7.06932C22.43 7.04511 22.2974 6.93256 22.2487 6.77885L22.2256 6.70865C22.2025 6.63483 22.1745 6.56221 22.1453 6.49201C22.1149 6.42182 22.082 6.35283 22.0455 6.28626L22.0103 6.22212C21.9336 6.08172 21.9421 5.91107 22.0334 5.77915L22.3533 5.31561L21.9543 4.93195L21.5102 5.26115C21.3788 5.35797 21.2049 5.3725 21.0601 5.29746L20.9932 5.26357C20.9251 5.22847 20.8545 5.19579 20.7827 5.16796C20.7122 5.14012 20.6392 5.1147 20.565 5.09292L20.4944 5.07234C20.3411 5.02756 20.2255 4.90048 20.1963 4.74436L20.0917 4.19005L19.5382 4.19852L19.4542 4.74315C19.4299 4.9029 19.3167 5.03483 19.1622 5.08324L19.0905 5.10623C19.0175 5.12923 18.9432 5.15706 18.869 5.18853C18.796 5.22 18.7218 5.2551 18.65 5.29504L18.5856 5.33014C18.4444 5.40759 18.2717 5.39912 18.1391 5.30835L17.6792 4.99368L17.2948 5.38823L17.6257 5.83483C17.7218 5.96433 17.7364 6.13498 17.6634 6.279L17.6293 6.34436C17.5965 6.4085 17.5661 6.47507 17.5393 6.54163C17.5089 6.61667 17.4821 6.69534 17.459 6.77401L17.4383 6.8442C17.3933 6.9967 17.2656 7.11168 17.1074 7.14194L16.56 7.2436L16.5685 7.79428L17.1208 7.87658C17.2802 7.90079 17.4128 8.01213 17.4627 8.16584L17.4858 8.23604C17.504 8.29292 17.5259 8.35222 17.5503 8.41032C17.5843 8.49262 17.6245 8.57613 17.6695 8.65843L17.7048 8.72257C17.7814 8.86296 17.7729 9.03361 17.6816 9.16554L17.3641 9.62424L17.7619 10.0079L18.2109 9.6787C18.2912 9.6206 18.38 9.59277 18.47 9.59277ZM16.5636 7.1734V7.17582C16.5648 7.17461 16.5648 7.17461 16.5636 7.1734ZM17.633 4.95616C17.6342 4.95737 17.6342 4.95737 17.633 4.95616V4.95616ZM21.9141 4.89201C21.9141 4.89201 21.9154 4.89322 21.9141 4.89201V4.89201Z" fill="#00984B"/>
<path d="M19.6306 9.47773C19.6111 9.47773 19.5904 9.47652 19.571 9.4741C18.5868 9.33613 17.8325 8.48651 17.8167 7.49649C17.8081 6.9555 18.0125 6.44233 18.3921 6.05262C18.7717 5.66291 19.2802 5.44385 19.824 5.43537C20.3666 5.42932 20.8837 5.63023 21.2754 6.00784C21.6672 6.38545 21.8874 6.89135 21.8959 7.43235C21.902 7.81117 21.8022 8.18273 21.6063 8.50708C21.4847 8.70799 21.2231 8.77214 21.0224 8.65232C20.8204 8.53129 20.7559 8.27108 20.8764 8.07138C20.9895 7.88379 21.0479 7.66714 21.0443 7.44687C21.0394 7.1322 20.9104 6.83689 20.6829 6.61662C20.4591 6.40118 20.1659 6.28258 19.8569 6.28258C19.8508 6.28258 19.8447 6.28258 19.8374 6.28258C19.5211 6.28742 19.2243 6.41571 19.0028 6.64203C18.7814 6.86835 18.6622 7.1673 18.6683 7.48318C18.678 8.05928 19.116 8.55429 19.6902 8.63537C19.9226 8.66805 20.0856 8.88227 20.0527 9.11344C20.0223 9.32524 19.8398 9.47773 19.6306 9.47773Z" fill="#00984B"/>
<path d="M12.5303 7.43237C12.1726 7.43237 11.8673 7.18063 11.8016 6.82844L11.7468 6.53918C11.7152 6.52708 11.6823 6.51498 11.6507 6.50287C11.6325 6.49561 11.6142 6.48835 11.5947 6.47988L11.3563 6.65537C11.2334 6.74614 11.085 6.79697 10.9281 6.79939C10.7261 6.79939 10.5436 6.7292 10.4013 6.59122L9.96939 6.17489C9.70904 5.92436 9.66889 5.52496 9.87449 5.22844L10.0436 4.98396C10.0241 4.94402 10.0071 4.90408 9.99007 4.86414C9.98642 4.85446 9.98277 4.84599 9.97912 4.83631L9.68714 4.79274C9.32703 4.73827 9.06303 4.43691 9.05695 4.07625L9.04722 3.47837C9.03627 3.12012 9.29053 2.80908 9.65186 2.74372L9.94262 2.68926C9.95357 2.659 9.96574 2.62753 9.9779 2.59728C9.98642 2.57791 9.99372 2.55734 10.0022 2.53797L9.82826 2.29955C9.61171 2.00666 9.63969 1.60605 9.89396 1.34826L10.3112 0.919818C10.4487 0.778215 10.6336 0.698336 10.8307 0.694705C10.9877 0.695915 11.1361 0.738275 11.2626 0.825416L11.5059 0.992435C11.5339 0.979122 11.5631 0.967019 11.5911 0.953706C11.6179 0.941603 11.6458 0.930711 11.6726 0.919818L11.7164 0.635401C11.7711 0.278366 12.0741 0.0157337 12.4366 0.00968229L13.0364 0C13.04 0 13.0437 0 13.0486 0C13.4075 0 13.7128 0.25174 13.7773 0.603933L13.8333 0.900454C13.8588 0.910136 13.8844 0.919818 13.9099 0.930711C13.9342 0.940393 13.9586 0.951286 13.9841 0.960968L14.2177 0.787897C14.3418 0.695915 14.4902 0.646293 14.6472 0.642662C14.8491 0.642662 15.0352 0.714069 15.1764 0.853252L15.6058 1.26596C15.8674 1.5177 15.9075 1.91588 15.7007 2.21362L15.5292 2.46172C15.5401 2.48593 15.5511 2.51135 15.562 2.53676C15.573 2.56218 15.5827 2.58638 15.5924 2.6118L15.8783 2.65537C16.2372 2.70983 16.5024 3.01119 16.5073 3.37307L16.517 3.96974C16.5231 4.33162 16.2676 4.64024 15.91 4.70681L15.6119 4.76248C15.607 4.777 15.601 4.79153 15.5949 4.80726C15.5815 4.84236 15.5657 4.87746 15.5511 4.91256L15.7238 5.14372C15.9416 5.43782 15.9136 5.83721 15.6593 6.09622L15.2433 6.52345C15.1058 6.66505 14.9209 6.74493 14.7238 6.74856C14.5681 6.75098 14.4184 6.70499 14.2907 6.61664L14.0425 6.4472C14.0206 6.45688 13.9999 6.46656 13.978 6.47625C13.9549 6.48593 13.9318 6.49561 13.9087 6.50529L13.8649 6.79697C13.8101 7.15401 13.5072 7.41785 13.1447 7.4239L12.5425 7.43358C12.5376 7.43237 12.5339 7.43237 12.5303 7.43237ZM11.5485 5.56369C11.6142 5.56369 11.6811 5.57942 11.7419 5.60968L11.8003 5.63994C11.8539 5.66656 11.9123 5.69319 11.9694 5.71619C12.0364 5.74281 12.1057 5.76702 12.1751 5.78759L12.2395 5.80575C12.3928 5.85053 12.5084 5.97761 12.5388 6.13495L12.6228 6.58396L12.8284 6.58033L13.0364 6.5767L13.1045 6.12647C13.1289 5.96793 13.2396 5.83722 13.3929 5.78759L13.4549 5.76702C13.5182 5.74644 13.5814 5.72224 13.6423 5.69682C13.7019 5.67141 13.759 5.64357 13.8138 5.61452L13.871 5.58306C14.0121 5.50681 14.1836 5.51528 14.3162 5.60605L14.697 5.86626L14.9841 5.57216L14.7153 5.2115C14.618 5.082 14.6034 4.90771 14.6788 4.76369L14.7092 4.70439C14.7433 4.63782 14.7749 4.56883 14.8029 4.49864C14.8236 4.44417 14.843 4.3885 14.8601 4.33404L14.8783 4.27231C14.9233 4.11982 15.0511 4.00484 15.208 3.97579L15.6642 3.89107L15.6581 3.47958L15.2104 3.4118C15.0498 3.38759 14.9172 3.27504 14.8686 3.12133L14.8479 3.0584C14.8272 2.99425 14.8029 2.93011 14.7773 2.86959C14.7506 2.80787 14.7214 2.74856 14.6909 2.69047L14.6593 2.63359C14.5827 2.49319 14.5912 2.32254 14.6824 2.19062L14.9452 1.81059L14.6472 1.52375L14.2834 1.79365C14.1532 1.89047 13.9768 1.90499 13.8333 1.82995L13.7736 1.7997C13.7152 1.76944 13.6532 1.7416 13.5912 1.71619C13.5291 1.69198 13.4658 1.66899 13.4026 1.65083L13.3405 1.63268C13.1872 1.5879 13.0717 1.46082 13.0425 1.30469L12.9573 0.850832L12.5437 0.856883L12.4755 1.30227C12.4512 1.46203 12.3381 1.59395 12.1836 1.64236L12.1203 1.66293C12.057 1.68351 11.9913 1.70651 11.9281 1.73434C11.8648 1.76218 11.8003 1.79244 11.7383 1.82632L11.6799 1.85779C11.5388 1.93404 11.366 1.92557 11.2334 1.8348L10.8563 1.577L10.5692 1.87231L10.8405 2.23782C10.9366 2.36732 10.9512 2.53918 10.877 2.682L10.8465 2.74009C10.8186 2.79576 10.7918 2.85386 10.7687 2.91195C10.7419 2.97852 10.7188 3.04629 10.6981 3.11407L10.6799 3.17579C10.6349 3.32829 10.5071 3.44327 10.349 3.47352L9.90126 3.55582L9.90734 3.96732L10.3599 4.0351C10.5205 4.0593 10.6519 4.17065 10.7018 4.32436L10.7225 4.38729C10.7383 4.43691 10.7577 4.48775 10.7784 4.53858C10.8076 4.60998 10.8429 4.6826 10.883 4.75522L10.9147 4.8121C10.9913 4.9525 10.9828 5.12315 10.8916 5.25507L10.6312 5.63026L10.9281 5.91709L11.2955 5.6472C11.3697 5.59153 11.4597 5.56369 11.5485 5.56369ZM14.7749 5.91951C14.7749 5.92072 14.7749 5.92072 14.7749 5.91951V5.91951ZM15.7567 3.87413C15.7555 3.87413 15.7555 3.87413 15.7567 3.87413V3.87413ZM9.90004 3.45658V3.459C9.90004 3.459 9.90004 3.45779 9.90004 3.45658ZM10.5047 1.93767C10.5035 1.93767 10.5035 1.93888 10.5047 1.93767V1.93767ZM10.7772 1.52375C10.7784 1.52375 10.7784 1.52375 10.7772 1.52375V1.52375ZM14.5815 1.46082L14.5827 1.46203L14.5815 1.46082ZM12.9403 0.75885C12.9403 0.76006 12.9403 0.76006 12.9403 0.75885V0.75885Z" fill="#00984B"/>
<path d="M12.7875 5.5648C12.5539 5.5648 12.3629 5.3772 12.3617 5.14362C12.3604 4.91003 12.549 4.71881 12.785 4.7176C12.9724 4.71639 13.1561 4.66313 13.3155 4.56268C13.7863 4.26616 13.9274 3.64407 13.6305 3.17569C13.3325 2.70731 12.7072 2.56691 12.2363 2.86223C11.8203 3.12365 11.6524 3.66102 11.8483 4.11003C11.9419 4.32425 11.8422 4.57357 11.6256 4.66676C11.4103 4.75996 11.1597 4.66071 11.066 4.44528C10.7059 3.61623 11.0137 2.62743 11.7813 2.14574C12.65 1.5999 13.8021 1.8589 14.3508 2.72304C14.8994 3.58719 14.6391 4.73333 13.7705 5.27917C13.476 5.46434 13.1378 5.56238 12.7911 5.5648C12.7899 5.5648 12.7887 5.5648 12.7875 5.5648Z" fill="#00984B"/>
<path d="M15.732 23.6781C15.5519 23.6781 15.3755 23.5897 15.2709 23.4275C14.1431 21.6835 12.2246 20.6427 10.1394 20.6427C8.05413 20.6427 6.1368 21.6835 5.00781 23.4275C4.84357 23.6805 4.50536 23.7531 4.25109 23.5909C3.99683 23.4275 3.92383 23.0911 4.08685 22.8381C5.4178 20.7818 7.68064 19.5534 10.1394 19.5534C12.5981 19.5534 14.8609 20.7806 16.1919 22.8381C16.3549 23.0911 16.2819 23.4275 16.0276 23.5909C15.9364 23.6502 15.833 23.6781 15.732 23.6781Z" fill="#3A5D8D"/>
<path d="M10.142 18.313C9.52764 18.313 8.91205 18.1968 8.32322 17.9656C7.09447 17.4827 6.12972 16.5532 5.60415 15.3478C5.07859 14.1423 5.05669 12.8049 5.54211 11.5838C6.02752 10.3626 6.96186 9.40161 8.17358 8.87877C10.6749 7.8004 13.5922 8.94775 14.6762 11.4361C15.304 12.8763 15.1981 14.5429 14.3964 15.896C14.2431 16.155 13.9073 16.2409 13.647 16.0884C13.3866 15.936 13.3003 15.6019 13.4536 15.3429C14.0789 14.2887 14.1604 12.9913 13.6713 11.8706C12.827 9.93293 10.5557 9.03973 8.6079 9.87967C7.66505 10.2863 6.93631 11.0343 6.55917 11.9856C6.18203 12.9369 6.19785 13.9777 6.60784 14.9157C7.01782 15.8537 7.76846 16.5786 8.72469 16.9538C9.68093 17.3302 10.7272 17.3133 11.67 16.9066C11.9474 16.7868 12.2698 16.9139 12.3903 17.1898C12.5107 17.4658 12.383 17.7865 12.1056 17.9063C11.4754 18.1762 10.8087 18.313 10.142 18.313Z" fill="#3A5D8D"/>
<path d="M9.2793 23.1334C9.2793 22.6553 9.66495 22.2668 10.1406 22.2668C10.6163 22.2668 11.002 22.6541 11.002 23.1334C11.002 23.6114 10.6163 23.9999 10.1406 23.9999C9.66495 23.9999 9.2793 23.6114 9.2793 23.1334Z" fill="#00984B"/>
</svg>
