<svg width="24" height="24" viewBox="0 0 24 24" fill="none" xmlns="http://www.w3.org/2000/svg">
<path fill-rule="evenodd" clip-rule="evenodd" d="M15.1681 5.72131C14.9695 5.82314 14.8088 5.96194 14.7076 6.11921L14.552 6.36074L14.5348 7.86728L14.5175 9.37382L11.4917 9.39213C8.48282 9.41031 8.46433 9.4112 8.17932 9.54636C7.58706 9.82729 7.24676 10.2242 7.07386 10.836C6.92547 11.3611 6.97039 12.9932 7.14405 13.3857C7.31794 13.7787 7.69817 14.1792 8.08096 14.3726L8.40799 14.5378L11.4655 14.5552L14.5231 14.5725V16.0327C14.5231 17.1422 14.5423 17.5389 14.6031 17.6846C14.7779 18.1036 15.313 18.4446 15.7911 18.4416C16.2668 18.4386 16.4096 18.3138 19.1184 15.533C21.8597 12.7189 22.0006 12.5479 21.9999 12.0369C21.9991 11.4325 22.0672 11.5171 19.1987 8.55661C17.727 7.03766 16.426 5.74313 16.3077 5.67993C15.9921 5.51115 15.5466 5.52731 15.1681 5.72131ZM18.2907 14.5377C16.9361 15.9313 15.808 17.0716 15.784 17.0716C15.7599 17.0716 15.7403 16.2131 15.7403 15.1638V13.2559H12.2073C9.74148 13.2559 8.63161 13.236 8.53301 13.1898C8.30441 13.0826 8.26308 12.8952 8.26308 11.9653V11.0977L8.46015 10.895L8.65723 10.6923H12.1988H15.7403V8.76957V6.84694L18.247 9.42533L20.7537 12.0037L18.2907 14.5377Z" fill="#3A5D8D"/>
<path fill-rule="evenodd" clip-rule="evenodd" d="M4.25054 3.11256C3.69642 3.29703 3.30691 3.54093 2.90326 3.95613C2.46465 4.40728 2.14899 5.00223 2.04726 5.56939C2.00785 5.78903 1.99278 8.05132 2.00321 12.1872L2.01898 18.4714L2.14702 18.8201C2.32033 19.2921 2.56736 19.6742 2.94737 20.0582C3.32395 20.4388 3.6788 20.6612 4.19258 20.8388C4.54673 20.9612 4.69634 20.9704 6.68498 20.992C8.95921 21.0166 9.14087 20.9986 9.34814 20.7275C9.4778 20.558 9.50823 20.1821 9.4079 19.9892C9.27574 19.7352 9.18573 19.7247 6.85887 19.6937L4.6273 19.6639L4.29918 19.4981C3.90955 19.3013 3.59383 18.9606 3.40237 18.5305L3.26309 18.2176L3.27862 11.9055C3.29346 5.86517 3.29885 5.58448 3.40284 5.38481C3.62495 4.95817 3.90051 4.67795 4.29413 4.47858L4.68243 4.28183L6.93503 4.25202L9.18758 4.22221L9.32739 4.05492C9.54388 3.79593 9.52249 3.43624 9.27603 3.19055L9.08493 3L6.82711 3.00322C4.82577 3.00602 4.53311 3.01848 4.25054 3.11256Z" fill="#00984B"/>
</svg>
