<svg width="24" height="24" viewBox="0 0 24 24" fill="none" xmlns="http://www.w3.org/2000/svg">
<g clip-path="url(#clip0_383_36665)">
<path d="M4.01614 19.9818V1.53607C4.01614 1.2547 4.24211 1.02644 4.52066 1.02644H16.7598C17.0384 1.02644 17.2644 1.2547 17.2644 1.53607C17.2644 1.69398 17.3908 1.82031 17.5457 1.82031H17.9977C18.154 1.82031 18.2791 1.69255 18.2791 1.53607C18.2791 0.687642 17.5983 0 16.7584 0H4.52066C3.68074 0 3 0.687642 3 1.53607V19.9818C3 20.8302 3.68074 21.5179 4.52066 21.5179C4.67557 21.5179 4.80205 21.3901 4.80205 21.2336V20.7757C4.80205 20.6192 4.67557 20.4914 4.52066 20.4914C4.24211 20.4914 4.01614 20.2632 4.01614 19.9818Z" fill="#00984B"/>
<path d="M19.2183 2.48215H18.2803H17.2642H6.97769C6.1392 2.48215 5.45703 3.16835 5.45703 4.01822V20.4915V21.5179V22.4654C5.45703 23.3138 6.1392 24.0015 6.97769 24.0015H19.2183C20.0568 24.0015 20.7389 23.3153 20.7389 22.4654V4.01822C20.7389 3.16979 20.0568 2.48215 19.2183 2.48215ZM19.7228 22.464C19.7228 22.7453 19.4954 22.9736 19.2183 22.9736H6.97769C6.70056 22.9736 6.47317 22.7453 6.47317 22.464V21.5165V20.49V17.1193V16.0943V14.0558V13.0308V10.9923V9.96725V7.92873V6.90516V4.85659V4.01965C6.47317 3.95362 6.48738 3.89045 6.51012 3.83303C6.58402 3.64497 6.76593 3.51002 6.97911 3.51002H17.2656H18.2817H19.2197C19.4968 3.51002 19.7242 3.73828 19.7242 4.01965V22.464H19.7228Z" fill="#3A5D8D"/>
<path d="M8.4331 6.31512C8.19577 6.31512 8.00391 6.50893 8.00391 6.74867V6.90658C8.00391 7.14632 8.19577 7.34012 8.4331 7.34012H15.7337H17.2643H17.7617C17.999 7.34012 18.1909 7.14632 18.1909 6.90658V6.74867C18.1909 6.50893 17.999 6.31512 17.7617 6.31512H17.2643H8.4331Z" fill="#00984B"/>
<path d="M8.4331 9.38867C8.19577 9.38867 8.00391 9.58248 8.00391 9.82222V9.96865V9.9787C8.00391 10.2184 8.19577 10.4122 8.4331 10.4122H15.7337H17.2643H17.7617C17.999 10.4122 18.1909 10.2184 18.1909 9.9787V9.82078C18.1909 9.58104 17.999 9.38724 17.7617 9.38724H17.2643H8.4331V9.38867Z" fill="#00984B"/>
<path d="M8.4331 12.4522C8.19577 12.4522 8.00391 12.646 8.00391 12.8858V13.0322V13.0423C8.00391 13.282 8.19577 13.4758 8.4331 13.4758H15.7337H17.2643H17.7617C17.999 13.4758 18.1909 13.282 18.1909 13.0423V12.8843C18.1909 12.6446 17.999 12.4508 17.7617 12.4508H17.2643H8.4331V12.4522Z" fill="#00984B"/>
<path d="M8.4331 15.5157C8.19577 15.5157 8.00391 15.7095 8.00391 15.9493V16.0957V16.1057C8.00391 16.3455 8.19577 16.5393 8.4331 16.5393H15.7337H17.2643H17.7617C17.999 16.5393 18.1909 16.3455 18.1909 16.1057V15.9478C18.1909 15.7081 17.999 15.5143 17.7617 15.5143H17.2643H8.4331V15.5157Z" fill="#00984B"/>
</g>
<defs>
<clipPath id="clip0_383_36665">
<rect width="17.7391" height="24" fill="white" transform="translate(3)"/>
</clipPath>
</defs>
</svg>
