<svg width="24" height="24" viewBox="0 0 24 24" fill="none" xmlns="http://www.w3.org/2000/svg">
<path d="M18.4962 11.3598C18.3355 11.3598 18.1769 11.2813 18.0838 11.1385C17.259 9.87821 15.8555 9.12489 14.3311 9.12489C12.8067 9.12489 11.4043 9.87712 10.5783 11.1385C10.432 11.363 10.1282 11.4263 9.90095 11.2835C9.67368 11.1395 9.60716 10.8408 9.7535 10.6173C10.7601 9.08019 12.4708 8.16226 14.3311 8.16226C16.1914 8.16226 17.902 9.08019 18.9086 10.6173C19.055 10.8408 18.9896 11.1395 18.7612 11.2835C18.6792 11.3347 18.5871 11.3598 18.4962 11.3598Z" fill="#00984B"/>
<path d="M14.3328 7.41002C13.8649 7.41002 13.396 7.32281 12.9481 7.14838C12.0124 6.78535 11.2774 6.08436 10.8772 5.17733C10.4769 4.2703 10.4603 3.26407 10.8306 2.34396C11.2009 1.42384 11.9126 0.701055 12.835 0.3075C13.7574 -0.0860553 14.7807 -0.102408 15.7164 0.261712C16.6521 0.625832 17.3871 1.32573 17.7873 2.23276C18.2651 3.3164 18.1853 4.57119 17.5744 5.58942C17.437 5.81836 17.1365 5.89467 16.9026 5.75949C16.6698 5.62431 16.5922 5.32887 16.7297 5.09884C17.182 4.34553 17.2407 3.41669 16.8882 2.61541C16.5922 1.94386 16.049 1.42711 15.3572 1.15784C14.6654 0.888566 13.9093 0.901648 13.2264 1.19164C12.5434 1.48271 12.0179 2.0169 11.7441 2.69717C11.4703 3.37745 11.4825 4.12204 11.7785 4.7925C12.0745 5.46405 12.6177 5.9808 13.3095 6.25007C14.0013 6.51935 14.7585 6.50626 15.4403 6.21628C15.6886 6.11053 15.978 6.22282 16.0855 6.46702C16.1931 6.71122 16.0789 6.99575 15.8306 7.1015C15.3483 7.30646 14.8405 7.41002 14.3328 7.41002Z" fill="#00984B"/>
<path d="M13.4928 21.5886C12.9955 21.5886 12.4996 21.5872 12.0024 21.5859C11.5051 21.5846 11.0092 21.5832 10.5134 21.5832C10.3503 21.5832 10.0134 21.5832 10.0134 21.5832C9.81367 21.5832 9.34631 21.5832 9.34088 21.117C9.33952 20.982 9.37892 20.8751 9.45772 20.7963C9.59086 20.6641 9.79873 20.6534 9.9835 20.6534H10.0188C10.4685 20.656 10.9169 20.656 11.3666 20.656C11.6369 20.656 13.001 20.6547 13.001 20.6547C13.2781 20.6547 14.3881 20.656 14.6653 20.656C15.0131 20.656 15.3609 20.656 15.71 20.6534C16.8553 20.648 17.767 20.1804 18.4204 19.2639C19.3348 17.9841 20.2505 16.6721 21.1349 15.4029C21.3713 15.0636 21.6077 14.7256 21.8441 14.3876C22.1756 13.9133 22.1512 13.5246 21.7694 13.2333C21.6335 13.1304 21.4882 13.077 21.336 13.077C21.0887 13.077 20.836 13.2199 20.6241 13.4778C20.385 13.769 20.1459 14.0589 19.9068 14.3489C19.1826 15.2266 18.434 16.1351 17.7167 17.0422C17.2412 17.6434 16.6869 17.924 15.9722 17.924C15.9383 17.924 15.9057 17.924 15.8717 17.9226C15.6 17.9133 15.3065 17.9079 14.9478 17.9079C14.725 17.9079 14.5009 17.9093 14.2781 17.9119C14.0539 17.9133 13.8297 17.9159 13.6055 17.9159C13.5213 17.9159 13.4357 17.9159 13.3515 17.9146C12.6301 17.9093 12.1776 17.5138 12.1722 16.8805C12.1654 16.2273 12.6341 15.7984 13.3637 15.789C13.5159 15.7877 13.6694 15.7837 13.8216 15.781C14.096 15.7757 14.3799 15.7703 14.6598 15.7703C15.0199 15.7703 15.3187 15.7784 15.6 15.7971C15.6244 15.7984 15.6489 15.7997 15.672 15.7997C15.9845 15.7997 16.1828 15.6675 16.2956 15.5566C16.441 15.4123 16.5265 15.2172 16.5252 15.0329C16.5211 14.5813 16.1461 14.2901 15.5674 14.2887C15.3527 14.2887 15.1367 14.2874 14.922 14.2861C14.6014 14.2847 14.2821 14.2834 13.9615 14.2834C13.4738 14.2834 13.073 14.2861 12.6994 14.2927H12.6627C12.2456 14.2927 11.9019 14.1632 11.5812 13.8826C10.8027 13.2039 9.88432 12.8445 8.92786 12.8445C8.06786 12.8445 7.2133 13.1398 6.45656 13.6969C6.42123 13.7236 6.38319 13.7557 6.34244 13.7904C6.21065 13.904 6.0612 14.0322 5.87915 14.0322C5.74872 14.0322 5.63053 13.9668 5.52727 13.8358C5.43489 13.7183 5.39549 13.6007 5.41179 13.4871C5.44032 13.2881 5.62102 13.1612 5.77997 13.0476C5.8153 13.0222 5.85062 12.9982 5.88187 12.9728C6.73236 12.3075 7.82739 11.9414 8.96319 11.9414C10.2036 11.9414 11.3326 12.3689 12.1437 13.1451C12.3108 13.3054 12.5105 13.3763 12.7904 13.3763H12.8121C13.2251 13.3709 13.6599 13.3682 14.1789 13.3682C14.615 13.3682 15.0511 13.3696 15.4872 13.3722H15.6353C16.6882 13.3763 17.4558 14.0736 17.4626 15.0302C17.4653 15.4831 17.305 15.8839 16.998 16.1885C16.6597 16.5252 16.1665 16.7109 15.6095 16.7109C15.263 16.7122 14.9166 16.7122 14.5702 16.7122C14.1897 16.7122 13.8107 16.7122 13.4316 16.7109H13.4072C13.327 16.7109 13.1912 16.7109 13.1477 16.7563C13.1219 16.783 13.1192 16.8391 13.1219 16.8819C13.1273 16.9834 13.1477 17.0155 13.3651 17.0155H13.4384C13.9017 17.0168 14.365 17.0182 14.8269 17.0182C15.2209 17.0182 15.6163 17.0168 16.0103 17.0155C16.3689 17.0141 16.6447 16.8779 16.8784 16.5866C17.9517 15.2533 19.0332 13.9414 19.9502 12.8338C20.3089 12.401 20.8116 12.1512 21.3279 12.1512C21.6852 12.1512 22.0303 12.2674 22.3264 12.4892C23.0764 13.0489 23.2177 14.0336 22.6634 14.8311L22.5628 14.9754C21.4433 16.5853 20.2858 18.2486 19.1228 19.8705C18.3281 20.978 17.1977 21.5512 15.7617 21.5739C15.1014 21.5832 14.3799 21.5886 13.4928 21.5886Z" fill="#3A5D8D"/>
<path d="M5.74436 24C5.46585 24 5.07457 23.8878 4.79877 23.3507C3.55157 20.9232 2.32611 18.5144 1.15635 16.1898C0.990602 15.8612 0.956637 15.5593 1.05446 15.2907C1.15228 15.0208 1.37645 14.8058 1.72017 14.6535C1.92261 14.5639 2.12368 14.4531 2.31796 14.3462C2.81113 14.0763 3.32197 13.7971 3.91976 13.7971H3.95644C4.94143 13.8051 5.65741 14.2233 6.0813 15.0409C6.93179 16.6801 7.78091 18.3555 8.67759 20.1604C9.24957 21.312 8.82704 22.5919 7.67358 23.2038C7.27823 23.4135 6.84212 23.6259 6.34351 23.8544C6.13157 23.9506 5.93049 24 5.74436 24ZM3.95916 14.6949C3.55157 14.7416 3.18475 14.9367 2.79755 15.1438C2.59104 15.2546 2.37774 15.3682 2.15357 15.4604C2.05303 15.5018 1.99189 15.5499 1.97152 15.6007C1.94978 15.6581 1.9688 15.745 2.02722 15.8585C3.28529 18.31 4.44554 20.5919 5.5759 22.8324C5.67779 23.0354 5.75116 23.0635 5.80822 23.0635C5.85985 23.0635 5.92642 23.0421 6.00658 22.998C6.20901 22.8898 6.41823 22.7896 6.62067 22.6934C6.82581 22.5959 7.03776 22.4943 7.23883 22.3861C7.93851 22.0107 8.18442 21.2626 7.83798 20.5665C6.90326 18.6908 5.95902 16.8458 5.24168 15.4484C5.00121 14.9794 4.5814 14.7323 3.95916 14.6949Z" fill="#3A5D8D"/>
</svg>
