<svg width="22" height="24" viewBox="0 0 22 24" fill="none" xmlns="http://www.w3.org/2000/svg">
<path fill-rule="evenodd" clip-rule="evenodd" d="M8.4415 5.01781C8.19853 5.3002 6.45878 7.91732 4.57564 10.8334C2.69251 13.7495 0.859161 16.5737 0.501621 17.1094C-0.177959 18.1274 -0.166202 18.7869 0.53182 18.7858C0.757501 18.7853 2.74852 17.5446 4.956 16.0287C7.16349 14.5128 9.08258 13.3374 9.22067 13.4164C9.35875 13.4953 9.74695 13.7505 10.0835 13.9833C11.5045 14.966 12.3143 14.0287 10.9602 12.9688L10.2585 12.4197L11.1331 11.7933C11.9998 11.1723 12.0102 11.1709 12.3237 11.634C12.6933 12.1799 13.4623 12.2523 13.6515 11.7592C13.7981 11.377 9.70384 4.81864 9.19715 4.62431C9.02472 4.55815 8.6847 4.73519 8.4415 5.01781ZM10.1294 8.17965C10.7186 9.06555 11.1983 9.86961 11.1956 9.9662C11.1877 10.2357 9.13583 11.5344 8.84445 11.4545C8.43505 11.342 6.83107 10.1596 6.82554 9.9662C6.82116 9.80484 8.90232 6.56877 9.01066 6.56877C9.03694 6.56877 9.5404 7.29376 10.1294 8.17965ZM7.52748 12.2373C7.66856 12.4056 7.07358 12.9441 5.72318 13.8703C4.61529 14.6304 3.57149 15.3321 3.40367 15.4298C3.23585 15.5273 3.65609 14.7406 4.33751 13.6813C5.01894 12.6221 5.6561 11.6241 5.75338 11.4637C5.89169 11.2357 6.08211 11.2608 6.62383 11.5789C7.00512 11.8028 7.41176 12.099 7.52748 12.2373Z" fill="#3A5D8D"/>
<path fill-rule="evenodd" clip-rule="evenodd" d="M6.93858 0.323299C6.69123 0.9683 7.19538 1.14649 9.06953 1.07665C10.7155 1.01533 10.8918 0.96392 10.8918 0.547597C10.8918 0.129199 10.7157 0.0803283 8.98631 0.0194704C7.40769 -0.0360854 7.05661 0.0160126 6.93858 0.323299ZM5.4796 2.61607C5.24378 2.90031 5.24378 3.03585 5.4796 3.32009C5.72119 3.61101 6.33438 3.6608 9.02342 3.60824L12.2749 3.54439V2.96808V2.39178L9.02342 2.32792C6.33438 2.27536 5.72119 2.32515 5.4796 2.61607ZM15.2717 11.9306C14.1618 12.4398 13.2547 13.3183 12.7577 14.366C12.2777 15.3771 12.2786 16.5405 12.7593 16.725C13.203 16.8953 13.5345 16.4357 13.5394 15.6427C13.5444 14.8123 14.5324 13.4716 15.4654 13.0288C16.3861 12.5919 17.9557 12.5331 18.6871 12.9082C18.964 13.0502 19.5288 13.4864 19.9419 13.8775C20.6413 14.5396 20.7197 14.5624 21.0751 14.2067C21.4308 13.8513 21.3944 13.7623 20.5491 12.917C19.1383 11.5062 17.0484 11.1154 15.2717 11.9306ZM15.8188 13.9467C14.2618 14.9476 14.0424 17.0482 15.3711 18.2353C16.292 19.0583 17.0624 19.2314 18.0809 18.8439C19.2383 18.4032 19.8822 17.4622 19.8822 16.2107C19.8822 15.3799 19.7508 15.0631 19.1611 14.4734C18.2669 13.5793 16.7598 13.3418 15.8188 13.9467ZM18.3748 15.2293C19.0465 15.9504 18.9801 16.89 18.2146 17.4924C17.0933 18.3741 15.6413 17.6948 15.6249 16.2807C15.6088 14.8955 17.419 14.2035 18.3748 15.2293ZM20.9195 16.5237C20.9195 17.5837 19.8282 19.453 18.1696 21.2342C16.6984 22.8144 16.39 23.4846 17.1344 23.4846C18.1593 23.4846 21.39 19.3739 21.8402 17.4967C22.1418 16.2399 22.0357 15.8773 21.367 15.8773C21.0304 15.8773 20.9195 16.0375 20.9195 16.5237ZM12.6207 17.6155C12.6207 18.6738 14.8838 21.8709 15.633 21.8709C16.3033 21.8709 16.1779 21.4136 15.1249 20.0205C14.6004 19.3266 14.0285 18.4216 13.854 18.0097C13.5214 17.2243 12.6207 16.9363 12.6207 17.6155Z" fill="#00984B"/>
</svg>
